PathFileType	4	(X/Y/Z)	RBDS014\RBDS014runT45.trc
DataRate	CameraRate	NumFrames	NumMarkers	Units	OrigDataRate	OrigDataStartFrame	OrigNumFrames
150.000000	150.000000	4	32	mm	150.000000	2250	4500
Frame#	Time	L.ASIS			L.Heel.Bottom			L.Heel.Lateral			L.Heel.Top			L.Iliac.Crest			L.MT1			L.MT5			L.PSIS			L.Shank.Bottom.Lateral			L.Shank.Bottom.Medial			L.Shank.Top.Lateral			L.Shank.Top.Medial			L.Thigh.Bottom.Lateral			L.Thigh.Bottom.Medial			L.Thigh.Top.Lateral			L.Thigh.Top.Medial			R.ASIS			R.ASY			R.Heel.Bottom			R.Heel.Lateral			R.Heel.Top			R.Iliac.Crest			R.MT5			R.PSIS			R.Shank.Bottom.Lateral			R.Shank.Bottom.Medial			R.Shank.Top.Lateral			R.Shank.Top.Medial			R.Thigh.Bottom.Lateral			R.Thigh.Bottom.Medial			R.Thigh.Top.Lateral			R.Thigh.Top.Medial			
		X1	Y1	Z1	X2	Y2	Z2	X3	Y3	Z3	X4	Y4	Z4	X5	Y5	Z5	X6	Y6	Z6	X7	Y7	Z7	X8	Y8	Z8	X9	Y9	Z9	X10	Y10	Z10	X11	Y11	Z11	X12	Y12	Z12	X13	Y13	Z13	X14	Y14	Z14	X15	Y15	Z15	X16	Y16	Z16	X17	Y17	Z17	X18	Y18	Z18	X19	Y19	Z19	X20	Y20	Z20	X21	Y21	Z21	X22	Y22	Z22	X23	Y23	Z23	X24	Y24	Z24	X25	Y25	Z25	X26	Y26	Z26	X27	Y27	Z27	X28	Y28	Z28	X29	Y29	Z29	X30	Y30	Z30	X31	Y31	Z31	X32	Y32	Z32	

2251	15	2258.525425605406	1107.698368065668	929.7921689719229	2278.469097142998	140.9329755764022	1004.569453144228	2301.280174480406	164.1579640075591	963.8359923741974	2286.951914314967	191.1505137174428	1006.138149987332	2184.984466062306	1186.073296514165	888.5771193896936	2510.994751311507	161.8346065390988	1047.998333412388	2473.22227023248	155.3334823618378	932.0152193969353	2082.535490045366	1149.601762790147	983.2999436423269	2370.131126901049	314.8295821419467	946.098415460344	2327.929897074985	323.0970587345494	981.0026459213046	2375.997140146242	394.2131319492373	934.8122366442288	2335.606637109293	402.9584633916331	969.3109211171769	2381.942862279234	802.5933056379882	901.6037105474618	2332.401277678176	756.3487947404836	927.526131151695	2299.478671953761	871.3336198274631	875.6549281692143	2253.031504042948	829.2858767764313	902.397878850105	2251.524968067083	1089.02335073462	1165.55273329172	1595.550470766125	177.7971501662456	1100.019982343128	1473.861568508442	329.5305933570963	1026.783189791781	1487.919189619526	321.715386051375	1074.557046993288	1522.182917521158	342.7760836376091	1042.41851736805	2225.930887719625	1172.276754260364	1182.889979860791	1521.346655114549	157.4404427389847	1141.962822043267	2086.037454389364	1145.816958383983	1082.844069196532	1601.922310978334	376.9954515230481	1120.386173323768	1595.700870770315	395.5181916959222	1073.119865320205	1649.595396499275	444.9529133509022	1138.860811383452	1638.649821438944	462.0863138432144	1089.812115710665	1991.694323513653	741.2690804268829	1198.965726070023	1940.179178415949	774.6509236519679	1158.890805183373	2036.105658267515	840.2889501613898	1217.660607554704	1990.005766019086	871.154270181486	1175.497815788316	
2252	15.00666666666667	2258.076174666936	1108.413568181007	929.2896306523776	2310.99353817078	124.4912766147772	1006.169971131072	2332.892998139081	148.2038852616064	965.3205868313299	2315.760994546133	175.1797468445243	1006.703444259962	2183.947101898264	1186.607761905067	888.8245187109843	2540.243607635193	163.0811928925481	1054.123172530556	2505.535741324034	150.7972948216587	937.1662063670343	2082.585799056994	1150.645519600346	984.5256826139482	2390.834933105682	303.9548839583443	946.562289407689	2347.702149166436	309.6942648371256	980.6266089866726	2391.39898991079	383.2547260692311	933.8843512327473	2349.998841108927	389.5458184850619	967.5161431250347	2377.361075548895	798.8931571542748	899.6011459643912	2327.247147532493	753.8886561673374	926.200250155397	2296.220732887693	869.4469460582745	874.6004007249333	2249.236094302211	828.6217381135299	902.1804194617511	2253.12899775488	1090.478974697017	1165.441132560192	1578.432506022294	194.9905857971311	1099.515559559519	1464.136173907117	349.7219999833403	1019.797387446866	1476.74087645551	342.5473465911781	1068.176234520804	1512.641789774198	361.4221134201175	1036.297200883077	2227.180485414369	1173.608257042336	1182.852278924199	1502.445462593336	178.3512230904614	1140.22851846363	2087.072124825274	1147.361830310496	1083.953688641365	1592.334103770655	392.8851584693778	1116.458577475862	1587.743188810105	411.2681922260118	1068.999778209205	1642.585387390899	458.8012061813507	1135.296724320552	1633.316498285648	475.9657517480697	1085.983969622285	1992.630868918932	743.4925757910294	1198.932880911747	1941.230722465262	777.0662017352552	1158.869449820058	2037.279057305052	842.3007837626783	1217.903262903606	1991.181033090857	873.4069837469672	1175.910524146038	
2253	15.01333333333333	2257.573797354467	1108.781278246396	928.9364393842204	2342.07333854161	109.528361996406	1007.796932392987	2362.967166831098	133.7832090465456	966.8200032652555	2343.208833482779	160.4359262525271	1007.35245144128	2182.803056302521	1186.540667877536	889.0167722236091	2567.093545510253	165.0464021616965	1059.43367568508	2535.508588740408	147.6314677567439	941.6984228002456	2082.479284372796	1151.17869788386	985.5738963795003	2410.313010656073	293.7269676305905	946.9543128529824	2366.262401729194	296.9717953038082	980.0192942286428	2405.749257539221	372.6156938574855	932.8289441569743	2363.355146597564	376.4806862716464	965.4138873211583	2372.049563338694	794.2325720238656	897.4344028671061	2321.346835092279	750.7014710620299	924.992075385312	2292.456261776615	866.8004975520965	873.5300412499968	2244.918784677394	827.3954318633707	902.1335159310767	2254.537852270392	1091.901237085598	1165.503482873717	1562.184570963884	213.2738648553948	1098.174367303491	1454.96268832617	370.5143448261639	1012.979077297018	1466.365545661891	363.9549306729612	1061.8561078198	1503.546287153666	380.7358019323315	1030.16569058327	2227.880419831529	1174.829863990833	1182.842746633193	1484.905225464223	200.3307714275467	1137.949374303518	2087.893541918877	1148.465430878554	1084.898575237627	1583.750574554337	409.3348452497323	1112.347561378261	1580.808874388122	427.6719935831988	1064.744682780799	1636.813033004466	472.8196194289283	1131.663865206022	1629.245172385637	490.1380555866135	1082.155218816645	1994.635980559784	744.7293029761769	1199.219927862983	1943.179095107904	778.2465601985904	1159.182967662518	2039.153237435386	843.5348513369789	1218.344635428212	1992.857067423747	874.6400991240741	1176.567402360155	
2254	15.02	2257.080016962326	1108.868817027969	928.7526391326415	2371.076646568692	96.0302563639371	1009.364122313	2390.877232161845	120.8973534133631	968.2537747661037	2368.73392026927	146.9471203326789	1008.041942284869	2181.62181449363	1185.972586441186	889.1823835290801	2591.222906565806	167.4442085693417	1063.735206630756	2562.64338242961	145.637080589826	945.440060266421	2082.298441547071	1151.254279604122	986.4887063229863	2428.144593712608	284.2219792388805	947.2436934790904	2383.234706601759	285.036405782861	979.2550340498854	2418.708333254083	362.4356771877116	931.7073352173422	2375.393201147204	363.9347157688227	963.1770796050016	2366.196339817779	788.8230001552	895.2196545882396	2314.88984968787	746.9345606944822	923.9208483267162	2288.353774720052	863.554987137253	872.5150377380535	2240.253409310423	825.707285162454	902.2345623158363	2255.80068517656	1093.215362034017	1165.721860743909	1546.972127388204	232.419625458284	1095.964942048137	1446.647108654106	392.0400571717922	1006.631903801919	1457.108810780626	385.9379274148978	1055.880152125058	1495.246238754288	400.7479205393009	1024.306089835409	2228.141093550787	1175.944329445043	1182.863036776897	1468.866308205192	223.1102743605416	1135.10242241908	2088.565235285218	1149.120975324957	1085.717151353045	1576.385115807971	426.2084057506765	1108.264572450036	1575.063212213179	444.5935265537187	1060.566035695707	1632.41587722086	486.878692351044	1128.135771249053	1626.511208388644	504.4814815747521	1078.511239161895	1997.598688245327	744.984013756175	1199.792735664739	1945.944351386062	778.2174049228879	1159.773296188893	2041.671711494596	843.9813925378743	1218.936508459361	1995.018658564019	874.8584116054376	1177.381125974858	
